<?xml version="1.0" encoding="UTF-8" standalone="no"?>
<svg
   xmlns:dc="http://purl.org/dc/elements/1.1/"
   xmlns:cc="http://creativecommons.org/ns#"
   xmlns:rdf="http://www.w3.org/1999/02/22-rdf-syntax-ns#"
   xmlns:svg="http://www.w3.org/2000/svg"
   xmlns="http://www.w3.org/2000/svg"
   viewBox="0 0 816 1056"
   height="1056"
   width="816"
   xml:space="preserve"
   id="svg2"
   version="1.1"><metadata
     id="metadata8"><rdf:RDF><cc:Work
         rdf:about=""><dc:format>image/svg+xml</dc:format><dc:type
           rdf:resource="http://purl.org/dc/dcmitype/StillImage" /></cc:Work></rdf:RDF></metadata><defs
     id="defs6"><clipPath
       id="clipPath18"
       clipPathUnits="userSpaceOnUse"><path
         id="path16"
         d="M 0,792 H 612 V 0 H 0 Z" /></clipPath></defs><g
     transform="matrix(1.3333333,0,0,-1.3333333,0,1056)"
     id="g10"><g
       id="g12"><g
         clip-path="url(#clipPath18)"
         id="g14"><g
           transform="translate(313.5713,421.5933)"
           id="g20"><path
             id="path22"
             style="fill:#43bc9d;fill-opacity:1;fill-rule:nonzero;stroke:none"
             d="m 0,0 v 0 c -0.983,0 -1.78,0.797 -1.78,1.78 v 5.143 c 0,0.983 0.797,1.781 1.78,1.781 0.983,0 1.78,-0.798 1.78,-1.781 V 1.78 C 1.78,0.797 0.983,0 0,0" /></g><g
           transform="translate(293.8857,413.4331)"
           id="g24"><path
             id="path26"
             style="fill:#43bc9d;fill-opacity:1;fill-rule:nonzero;stroke:none"
             d="m 0,0 v 0 c -0.695,-0.695 -1.822,-0.695 -2.518,0 l -3.636,3.637 c -0.695,0.695 -0.695,1.822 0,2.517 0.695,0.696 1.822,0.696 2.517,0 L 0,2.518 C 0.695,1.823 0.695,0.695 0,0" /></g><g
           transform="translate(329.4619,413.4331)"
           id="g28"><path
             id="path30"
             style="fill:#43bc9d;fill-opacity:1;fill-rule:nonzero;stroke:none"
             d="m 0,0 v 0 c 0.695,-0.695 1.822,-0.695 2.518,0 l 3.636,3.637 c 0.696,0.695 0.696,1.822 0,2.517 -0.695,0.696 -1.822,0.696 -2.517,0 L 0,2.518 C -0.695,1.823 -0.695,0.695 0,0" /></g><g
           transform="translate(287.2041,371.1758)"
           id="g32"><path
             id="path34"
             style="fill:#43bc9d;fill-opacity:1;fill-rule:nonzero;stroke:none"
             d="m 0,0 v 0 c 0.695,-0.695 1.822,-0.695 2.518,0 l 3.636,3.637 c 0.696,0.695 0.696,1.822 0,2.517 -0.695,0.696 -1.822,0.696 -2.517,0 L 0,2.518 C -0.695,1.822 -0.695,0.695 0,0" /></g><g
           transform="translate(288.1313,395.7612)"
           id="g36"><path
             id="path38"
             style="fill:#43bc9d;fill-opacity:1;fill-rule:nonzero;stroke:none"
             d="m 0,0 v 0 c 0,-0.983 -0.797,-1.78 -1.78,-1.78 h -5.143 c -0.983,0 -1.78,0.797 -1.78,1.78 0,0.983 0.797,1.78 1.78,1.78 H -1.78 C -0.797,1.78 0,0.983 0,0" /></g><g
           transform="translate(311.791,370.2451)"
           id="g40"><path
             id="path42"
             style="fill:#43bc9d;fill-opacity:1;fill-rule:nonzero;stroke:none"
             d="m 0,0 v 0 c 0.983,0 1.78,-0.797 1.78,-1.78 v -5.143 c 0,-0.983 -0.797,-1.78 -1.78,-1.78 -0.983,0 -1.78,0.797 -1.78,1.78 V -1.78 C -1.78,-0.797 -0.983,0 0,0" /></g><g
           transform="translate(329.9893,377.3301)"
           id="g44"><path
             id="path46"
             style="fill:#43bc9d;fill-opacity:1;fill-rule:nonzero;stroke:none"
             d="m 0,0 v 0 c 0.695,0.695 1.822,0.695 2.518,0 l 3.636,-3.637 c 0.696,-0.695 0.696,-1.822 0,-2.517 -0.695,-0.696 -1.822,-0.696 -2.517,0 L 0,-2.518 C -0.695,-1.822 -0.695,-0.695 0,0" /></g><g
           transform="translate(337.2578,395.5332)"
           id="g48"><path
             id="path50"
             style="fill:#43bc9d;fill-opacity:1;fill-rule:nonzero;stroke:none"
             d="m 0,0 v 0 c 0,0.983 0.798,1.78 1.78,1.78 h 5.144 c 0.982,0 1.78,-0.797 1.78,-1.78 0,-0.983 -0.798,-1.78 -1.78,-1.78 H 1.78 C 0.798,-1.78 0,-0.983 0,0" /></g><g
           transform="translate(315.0625,418.6523)"
           id="g52"><path
             id="path54"
             style="fill:#43bc9d;fill-opacity:1;fill-rule:nonzero;stroke:none"
             d="m 0,0 c 0,0 2.11,1.055 2.11,-1.78 0,-2.835 -1.648,-13.78 -1.648,-13.78 0,0 -0.396,-0.857 0.594,-1.055 0.989,-0.198 8.966,0 8.966,0 0,0 2.44,-0.791 0.923,-3.429 -1.516,-2.637 -17.472,-25.385 -17.472,-25.385 0,0 -2.769,-0.659 -2.439,2.111 0.329,2.769 2.11,16.879 2.11,16.879 l -10.221,0.461 c 0,0 -2.044,1.033 0,3.352 C -15.033,-20.308 0,0 0,0" /></g><g
           transform="translate(311.667,407.4443)"
           id="g56"><path
             id="path58"
             style="fill:#ffffff;fill-opacity:1;fill-rule:nonzero;stroke:none"
             d="M 0,0 C 0,0 2.11,3.528 1.583,-0.791 1.056,-5.11 0.692,-8.11 0.692,-8.11 c 0,0 -0.065,-1.286 1.253,-1.286 1.319,0 7.155,-0.164 7.155,-0.164 0,0 2.324,0.28 1.021,-1.022 -1.302,-1.302 -9.429,-13.187 -9.429,-13.187 0,0 -1.12,-1.319 -1.088,0.428 0.034,1.748 0.759,10.286 0.759,10.286 0,0 0.297,1.627 -0.956,1.539 -1.253,-0.088 -6.791,0 -6.791,0 0,0 -1.681,0.11 0,1.857 C -5.703,-7.912 0,0 0,0" /></g></g></g></g></svg>