<svg xmlns="http://www.w3.org/2000/svg" width="31" height="31" fill="none" viewBox="0 0 31 31"><g clip-path="url(#clip0)"><path fill="#000" stroke="#B3B3B3" stroke-width=".3" d="M.51 15.493H.53c.278 0 .507-.22.516-.499.28-7.985 6.98-14.23 14.964-13.951a14.467 14.467 0 018.443 3.09h-2.75a.517.517 0 000 1.034h4.141a.52.52 0 00.119-.024.552.552 0 00.078-.017c.014-.006.025-.019.039-.026a.495.495 0 00.126-.089l.005-.003a.498.498 0 00.036-.057.504.504 0 00.067-.108.492.492 0 00.026-.127.435.435 0 00.013-.065V.517a.517.517 0 10-1.033 0V3.51C18.699-1.914 8.936-.944 3.512 5.675a15.496 15.496 0 00-3.5 9.284.517.517 0 00.499.534zM4.691 25.115a.518.518 0 10-.775.687c.356.399.732.78 1.126 1.14a.517.517 0 00.697-.762 14.567 14.567 0 01-1.048-1.065zM10.858 29.206a14.4 14.4 0 01-1.39-.553.517.517 0 10-.432.939c.486.223.984.421 1.49.593a.517.517 0 00.332-.98zM8.143 27.959v0c-.429-.255-.845-.531-1.247-.827a.517.517 0 10-.614.83c.43.318.875.614 1.335.886a.517.517 0 00.526-.89zM3.756 23.949a14.659 14.659 0 01-.81-1.257.517.517 0 00-.897.516c.266.463.556.911.868 1.344a.517.517 0 00.839-.603zM2.315 21.572a.517.517 0 00-.044-.21l-.001-.003c-.202-.456-.381-.921-.535-1.395a.517.517 0 10-.982.319c.165.509.356 1.009.573 1.498a.516.516 0 00.989-.21zM.95 19.13s0 0 0 0a.517.517 0 00.399-.612c-.103-.488-.181-.98-.234-1.477a.517.517 0 00-1.028.11c.056.53.14 1.058.251 1.581.06.28.333.458.612.399zM30.174 18.603s0 0 0 0a.517.517 0 00-.626.377c-.12.484-.264.962-.433 1.432a.517.517 0 10.972.35c.181-.503.337-1.015.465-1.533a.517.517 0 00-.378-.626zM13.77 29.863a14.462 14.462 0 01-1.473-.253.517.517 0 00-.228 1.008c.521.118 1.048.208 1.58.272a.517.517 0 00.122-1.026zM29.222 21.55a.517.517 0 00-.69.24c-.217.45-.458.887-.72 1.31a.517.517 0 00.878.545c.281-.455.539-.924.771-1.405a.517.517 0 00-.24-.69zM27.695 24.237a.517.517 0 00-.735.094v0c-.305.395-.63.774-.974 1.136a.517.517 0 00.75.713c.367-.388.715-.794 1.042-1.217a.517.517 0 00-.083-.726zM30.492 15.525a.509.509 0 00-.535.498c-.017.498-.06.996-.13 1.49a.517.517 0 001.024.142c.074-.53.12-1.062.14-1.596a.517.517 0 00-.499-.534zM24.903 26.495v.001c-.38.325-.776.63-1.188.914a.518.518 0 10.59.852c.44-.306.863-.633 1.27-.982a.517.517 0 00-.672-.785zM19.69 29.35c-.477.145-.961.264-1.451.357a.517.517 0 00.194 1.016c.525-.1 1.045-.229 1.556-.383a.517.517 0 00-.298-.99zM16.784 29.91a.68.68 0 00-.028.003l.003.002c-.414.035-.837.052-1.258.052h-.237a.535.535 0 00-.526.507.517.517 0 00.507.526s0 0 0 0h.256c.451 0 .904-.02 1.343-.058a.517.517 0 10-.06-1.032zM22.444 28.194h0c-.437.24-.886.457-1.346.65a.517.517 0 10.4.953c.492-.208.974-.44 1.442-.697a.517.517 0 10-.496-.906z"/><path fill="#000" stroke="#B3B3B3" stroke-width=".3" d="M15.5 4.65C9.509 4.65 4.65 9.509 4.65 15.5S9.509 26.35 15.5 26.35c5.993 0 10.85-4.858 10.85-10.85-.006-5.989-4.86-10.843-10.85-10.85zm8.267 11.367h1.524a9.813 9.813 0 01-9.274 9.274v-1.524a.517.517 0 10-1.033 0v1.524a9.813 9.813 0 01-9.273-9.274h1.523a.517.517 0 100-1.033H5.711a9.813 9.813 0 019.273-9.274v1.524a.517.517 0 101.033 0V5.71a9.813 9.813 0 019.274 9.274h-1.524a.517.517 0 000 1.033z"/><path fill="#000" stroke="#B3B3B3" stroke-width=".3" d="M16.017 14.046V9.3a.517.517 0 10-1.033 0v4.745a1.55 1.55 0 00-.938.938h-2.679a.517.517 0 000 1.033h2.679a1.546 1.546 0 101.971-1.971zm-.516 1.971a.517.517 0 110-1.033.517.517 0 010 1.033z"/></g><clipPath id="clip0"><path fill="#fff" d="M0 0h31v31H0z"/></clipPath></svg>