<svg xmlns="http://www.w3.org/2000/svg" width="34" height="34" fill="none" viewBox="0 0 34 34">
  <path fill="#24BF9C" stroke="#24BF9C" stroke-width=".3" d="M17 5a.667.667 0 01-.666-.667V1.667a.667.667 0 011.333 0v2.666a.667.667 0 01-.666.667zM25.957 8.71a.667.667 0 01-.472-1.137l1.885-1.886a.667.667 0 01.943.942l-1.885 1.886c-.13.129-.3.194-.471.194zM32.333 17.666h-2.666a.667.667 0 010-1.333h2.666a.667.667 0 010 1.333zM27.842 28.51a.67.67 0 01-.472-.195l-1.885-1.885a.667.667 0 01.943-.943l1.885 1.885a.667.667 0 01-.47 1.138zM17 33a.667.667 0 01-.666-.667v-2.666a.667.667 0 011.333 0v2.666a.667.667 0 01-.666.667zM6.157 28.51a.667.667 0 01-.472-1.137l1.886-1.886a.667.667 0 01.942.943l-1.885 1.885c-.13.13-.3.195-.47.195zM4.333 17.666H1.667a.667.667 0 010-1.333h2.666a.667.667 0 010 1.333zM8.043 8.71a.67.67 0 01-.472-.195L5.687 6.629a.667.667 0 01.943-.942l1.885 1.885a.667.667 0 01-.472 1.137zM15.097 27.666a.666.666 0 01-.661-.753l1.137-8.58H11a.668.668 0 01-.534-1.067l8-10.666a.667.667 0 011.192.51l-1.205 7.223H23a.666.666 0 01.557 1.035l-7.902 12a.67.67 0 01-.558.298zM12.333 17h4a.667.667 0 01.662.754l-.855 6.451 5.622-8.539h-4.096a.666.666 0 01-.657-.776l.884-5.304L12.333 17z"/>
</svg>
