<svg xmlns="http://www.w3.org/2000/svg" width="36" height="36" fill="none" viewBox="0 0 36 36"><g clip-path="url(#clip0)"><path fill="#24BF9C" d="M27.804 8.576a12.291 12.291 0 00-1.693-1.4v-3.66a.703.703 0 00-1.406 0v2.83a12.001 12.001 0 00-2.11-.821V.703a.703.703 0 00-1.406 0v4.512c-.63-.1-1.274-.152-1.925-.152l-.184.002v-1.55a.703.703 0 00-1.406 0v1.651c-.72.094-1.426.252-2.11.47V.703a.703.703 0 10-1.406 0v5.481a12.169 12.169 0 00-3.434 2.392c-2.293 2.267-3.556 5.271-3.556 8.458 0 .73-.65 2.071-1.738 3.588-1.013 1.411-.868 2.405-.568 2.99.316.616 1.1 1.339 3.018 1.48v3.077c0 2.08 1.708 3.773 3.808 3.773 1.835 0 2.846.069 3.276.44.422.365.555 1.283.665 2.961.024.37.33.657.701.657h10.083a.703.703 0 00.701-.749c-.089-1.36-.126-2.361-.12-3.248a.703.703 0 10-1.406-.01c-.005.75.02 1.571.077 2.601h-8.68c-.123-1.53-.33-2.608-1.101-3.275-.845-.73-2.149-.783-4.196-.783-1.324 0-2.402-1.062-2.402-2.367v-3.755a.703.703 0 00-.703-.703c-1.308 0-2.232-.277-2.47-.741-.169-.33-.001-.886.459-1.528.914-1.273 2.003-3.07 2.003-4.408 0-4 2.26-7.486 5.583-9.28v3.081a.703.703 0 001.406 0V7.122c.674-.247 1.38-.428 2.11-.536v7.062a.703.703 0 001.406 0V6.471l.184-.002c.657 0 1.3.06 1.925.172v4.194a.703.703 0 001.407 0v-3.84c.742.241 1.448.56 2.109.948v9.431a.703.703 0 001.406 0V8.928c2.347 1.94 3.842 4.853 3.842 8.106 0 1.936-.541 3.834-1.566 5.487a21.266 21.266 0 00-1.58 3.02.703.703 0 101.297.54c.374-.896.858-1.818 1.478-2.819a11.814 11.814 0 001.777-6.228c0-3.187-1.262-6.19-3.555-8.458z"/><path fill="#24BF9C" d="M26.555 28.142a.703.703 0 10-.001 1.405.703.703 0 000-1.405zM13.205 24.855h.017c.598 0 1.165-.237 1.597-.668a2.323 2.323 0 00.685-1.632c0-.824-.497-1.612-.793-2.009-.37-.497-.931-1.09-1.495-1.09-.564 0-1.125.593-1.496 1.09-.296.397-.792 1.185-.792 2.009 0 .604.25 1.199.684 1.632.433.431 1 .668 1.593.668zm.01-3.892c.345.323.883 1.085.883 1.592a.908.908 0 01-.271.636.86.86 0 01-.61.258h-.007a.857.857 0 01-.605-.258.908.908 0 01-.271-.636c0-.507.537-1.269.882-1.591z"/></g><clipPath id="clip0"><path fill="#fff" d="M0 0h36v36H0z"/></clipPath></svg>