<svg xmlns="http://www.w3.org/2000/svg" width="27" height="36" fill="none" viewBox="0 0 27 36">
  <path fill="#24BF9C" fill-rule="evenodd" d="M23.336 8.99l1.745-2.242a.692.692 0 00-.39-1.1l-2.092-.483 2.226-4.144A.693.693 0 0024.215 0h-5.768c-.32 0-.599.22-.674.532l-1.114 4.67a11.997 11.997 0 00-2.25-.214c-3.17 0-6.158 1.23-8.415 3.462-2.259 2.234-3.503 5.193-3.503 8.333 0 .72-.64 2.041-1.713 3.536-.998 1.39-.855 2.37-.56 2.945.312.608 1.084 1.32 2.974 1.46v3.03c0 2.051 1.683 3.719 3.752 3.719 1.808 0 2.804.067 3.228.434.416.359.547 1.263.655 2.916a.693.693 0 00.691.648h9.935a.693.693 0 00.691-.738c-.088-1.34-.124-2.327-.118-3.2a.693.693 0 10-1.386-.01c-.005.738.019 1.548.076 2.562h-8.553c-.12-1.507-.324-2.57-1.085-3.227-.832-.719-2.117-.77-4.134-.77-1.305 0-2.366-1.047-2.366-2.333V24.055a.693.693 0 00-.693-.693c-1.289 0-2.199-.273-2.434-.73-.166-.324-.001-.873.453-1.505.9-1.254 1.973-3.026 1.973-4.344 0-5.74 4.724-10.41 10.532-10.41.648 0 1.294.06 1.928.177l-.257 1.076a.693.693 0 00.596.85l2.08.234-1.17 5.525a.693.693 0 001.225.569l3.659-4.7a10.255 10.255 0 01.928 12.086 20.945 20.945 0 00-1.557 2.975.693.693 0 101.278.533c.369-.883.845-1.792 1.457-2.778a11.64 11.64 0 00-1.24-13.93zM19.67 7.42a.693.693 0 01.6.831l-.704 3.328 3.756-4.825-1.917-.443a.693.693 0 01-.455-1.003l2.107-3.922h-4.062l-1.384 5.8 2.06.233z" clip-rule="evenodd"/>
  <path fill="#24BF9C" d="M11.067 19.012a.69.69 0 00.835-.18l4.682-5.641a.693.693 0 00-.378-1.118l-1.154-.266.85-2.106a.693.693 0 00-.643-.952h-3.77c-.32 0-.6.22-.674.532L9.708 13.92a.693.693 0 00.596.85l1.097.123-.71 3.353a.693.693 0 00.376.767zm.17-5.533l.799-3.344h2.196l-.769 1.905a.693.693 0 00.487.935l.85.196-2.172 2.616.287-1.354a.692.692 0 00-.6-.832l-1.078-.122zM21.593 27.728a.693.693 0 10-.001 1.385.693.693 0 00.001-1.385z"/>
</svg>
