<svg xmlns="http://www.w3.org/2000/svg" width="52" height="52" fill="none" viewBox="0 0 52 52">
  <path fill="#000" stroke="#fff" stroke-width=".1" d="M35.608 14.612l-.032-.039.032.039a.845.845 0 011.189.115 11.359 11.359 0 012.58 7.203c0 6.253-5.088 11.34-11.341 11.34-6.253 0-11.341-5.087-11.341-11.34 0-6.254 5.088-11.341 11.34-11.341 1.71 0 3.354.37 4.885 1.102a.845.845 0 01-.728 1.525 9.565 9.565 0 00-4.156-.938c-5.322 0-9.652 4.33-9.652 9.652 0 5.322 4.33 9.651 9.652 9.651 5.322 0 9.652-4.33 9.652-9.651 0-2.232-.78-4.409-2.196-6.13a.845.845 0 01.116-1.188zM27.19 4.754a.845.845 0 111.69 0s0 0 0 0v2.862a.845.845 0 01-1.69 0V4.754zM21.61 9.112h0c.318.551-.09 1.267-.73 1.267a.845.845 0 01-.733-.422s0 0 0 0l-1.431-2.48h0a.845.845 0 01.31-1.153h0a.845.845 0 011.153.309h0l1.431 2.48zM16.062 14.041h0l-2.479-1.43a.844.844 0 00-1.154.308h0a.845.845 0 00.31 1.154h0m3.323-.032l-3.349.075.026-.043m3.323-.032a.853.853 0 01.352 1.07m-.352-1.07l.352 1.07m-3.676-1.038l2.48 1.431-2.48-1.431zm3.676 1.038a.853.853 0 01-1.196.393l1.196-.393zM10.86 21.085h2.862a.845.845 0 010 1.69H10.86a.845.845 0 110-1.69zM16.37 28.664h0a.845.845 0 01-.308 1.154l-2.48 1.431h0a.853.853 0 01-1.196-.393h0a.853.853 0 01.352-1.07l2.48-1.431h0a.844.844 0 011.153.31zM20.147 33.903h0a.844.844 0 111.463.845l-1.432 2.479h0a.853.853 0 01-1.232.258.853.853 0 01-.23-1.103h0l1.43-2.479zM27.19 36.243a.845.845 0 111.69 0s0 0 0 0v2.862a.845.845 0 01-1.69 0v-2.862zM35.924 33.903h0l1.431 2.48s0 0 0 0a.853.853 0 01-.23 1.101h0a.853.853 0 01-1.233-.257h0l-1.43-2.48h0a.844.844 0 01.308-1.153h0a.844.844 0 011.154.31zM43.333 29.786h0l-2.48-1.431a.844.844 0 00-1.153.31h0a.845.845 0 00.309 1.153h0m3.324-.032l-3.349.075.025-.043m3.324-.032c.314.181.48.556.403.91h0a.853.853 0 01-.826.666.841.841 0 01-.422-.113l.845-1.463zm-3.324.032l2.48 1.431-2.48-1.431zM45.21 21.085h-2.862a.845.845 0 000 1.69h2.863a.845.845 0 00.845-.845l-.845-.845zm0 0c.467 0 .845.379.846.845l-.845-.845zM42.488 12.61h0l-2.48 1.431s0 0 0 0a.853.853 0 00-.351 1.07h0a.853.853 0 001.196.393h0l2.48-1.43-.845-1.464zm0 0a.844.844 0 011.153.31l-1.153-.31zM35.891 6.633h0a.844.844 0 111.463.845l-1.431 2.479s0 0 0 0a.844.844 0 01-.732.422c-.64 0-1.049-.716-.73-1.267h0l1.43-2.479z"/>
  <path fill="#000" stroke="#fff" stroke-width=".1" d="M30.311 19.604v.05H31.852a2.278 2.278 0 012.276 2.276 2.279 2.279 0 01-2.276 2.276h-1.54v1.54a2.279 2.279 0 01-2.277 2.276 2.279 2.279 0 01-2.276-2.275V24.206h-1.54a2.279 2.279 0 01-2.276-2.276 2.278 2.278 0 012.275-2.276H25.76V18.113a2.279 2.279 0 012.276-2.276 2.279 2.279 0 012.276 2.276v1.49zm-.845 2.913h2.386a.587.587 0 000-1.174h-2.386a.845.845 0 01-.844-.845v-2.385a.587.587 0 00-1.174 0v2.385a.845.845 0 01-.844.845h-2.386a.587.587 0 000 1.174h2.386c.466 0 .844.378.844.844v2.386a.587.587 0 001.174 0V23.36c0-.466.378-.845.845-.845z"/>
</svg>
